<svg version="1.1" id="Layer_1" xmlns="http://www.w3.org/2000/svg" xmlns:xlink="http://www.w3.org/1999/xlink" x="0px" y="0px"
	 width="100%" viewBox="0 0 752 336" enable-background="new 0 0 752 336" xml:space="preserve">
<path fill="#000000" opacity="1.000000" stroke="none" 
	d="
M552.920288,161.389404 
	C555.020020,169.321671 554.349670,177.002213 554.299072,184.652008 
	C554.277405,187.925964 552.401184,189.189438 549.474365,188.909668 
	C535.511414,187.574905 521.550232,189.825653 507.543823,188.606918 
	C497.849365,187.763382 488.022247,188.444763 478.287659,188.444763 
	C478.246216,198.186722 485.642151,206.532562 495.318665,208.591751 
	C506.585083,210.989304 516.555054,208.915512 523.867310,199.228531 
	C525.606445,196.924606 527.296448,196.664017 529.855225,197.742081 
	C535.064941,199.937103 540.355225,201.961197 545.691895,203.827988 
	C549.331055,205.100983 549.888245,206.869904 547.858154,210.151199 
	C539.728821,223.290863 527.986633,230.818695 512.876892,233.544952 
	C488.848358,237.880447 466.199890,228.852478 453.761536,209.208115 
	C435.398865,180.207260 445.130859,131.814972 489.437408,123.549385 
	C517.894226,118.240646 542.639160,129.220474 552.920288,161.389404 
M495.503387,168.677734 
	C504.589050,168.677734 513.674683,168.677734 522.705566,168.677734 
	C523.282776,155.802505 513.986267,148.168396 503.419769,147.464874 
	C489.045563,146.507828 480.088226,154.904907 477.793182,165.568130 
	C477.195282,168.346100 479.058258,168.623306 481.025909,168.643005 
	C485.518494,168.688034 490.011780,168.662323 495.503387,168.677734 
z"/>
<path fill="#000000" opacity="1.000000" stroke="none" 
	d="
M402.756897,175.100189 
	C402.727966,172.950027 402.753540,171.282043 402.670959,169.619431 
	C402.139679,158.921997 398.046478,152.848343 390.080902,150.888474 
	C380.738434,148.589844 370.801208,152.598633 365.823364,160.699554 
	C363.221313,164.934158 362.177216,169.572525 362.178162,174.519272 
	C362.181366,191.008621 362.144409,207.498032 362.093475,223.987320 
	C362.069916,231.609543 361.144928,232.242996 353.721558,231.780579 
	C347.249512,231.377411 340.742462,231.361801 334.254883,231.454483 
	C331.009521,231.500854 329.658875,230.306534 329.801300,227.099289 
	C330.510651,211.127594 329.981689,195.137985 330.247375,179.156586 
	C330.507080,163.535858 330.947205,147.887375 330.721191,132.246964 
	C330.611969,124.689774 330.723633,124.708527 338.043701,124.741577 
	C343.373718,124.765648 348.711334,124.893822 354.031738,124.660553 
	C357.914062,124.490341 359.498810,125.940353 359.357666,129.855606 
	C359.271423,132.248016 358.659271,134.880905 360.470062,136.957443 
	C361.506134,137.253494 362.171143,136.805664 362.789246,136.202286 
	C376.378540,122.935669 392.385742,119.060089 410.593994,124.027802 
	C418.952911,126.308327 425.067596,131.498596 428.705231,139.316833 
	C432.028839,146.460220 434.162964,153.993393 434.185822,161.955765 
	C434.247009,183.276321 434.136871,204.597946 434.326111,225.917114 
	C434.367065,230.532333 432.626770,232.253052 428.176025,232.035980 
	C421.027802,231.687332 413.870789,231.406143 406.715668,231.357056 
	C402.742340,231.329773 402.680084,228.950027 402.690704,226.053696 
	C402.752411,209.230881 402.745270,192.407822 402.756897,175.100189 
z"/>
<path fill="#000000" opacity="1.000000" stroke="none" 
	d="
M611.953247,150.926849 
	C616.680298,143.453476 621.293518,136.321564 625.728088,129.080276 
	C627.500427,126.186302 629.662598,125.219971 633.130127,125.337479 
	C639.933838,125.568039 646.760010,125.085800 653.578125,124.976959 
	C655.695740,124.943153 657.956726,124.592903 659.683960,126.437271 
	C660.015808,128.698624 658.452942,130.159225 657.355591,131.759262 
	C647.752136,145.762100 638.183960,159.790527 628.413513,173.676376 
	C626.348389,176.611313 626.398376,178.751404 628.464417,181.628677 
	C639.148071,196.507553 649.659302,211.510315 660.216980,226.479523 
	C661.158630,227.814697 662.436768,229.006592 662.403320,230.841171 
	C661.356323,232.799850 659.495972,232.197983 657.944519,232.205460 
	C649.617432,232.245682 641.287842,232.079575 632.963379,232.224426 
	C629.704224,232.281143 627.885803,230.952560 626.207642,228.233444 
	C620.365479,218.767487 614.242737,209.474655 607.665161,199.242538 
	C602.402466,207.143753 596.890564,214.053284 592.916199,221.756134 
	C588.626770,230.069641 583.108582,233.864685 573.623352,232.364761 
	C568.584656,231.567978 563.319153,232.225586 558.156433,232.181824 
	C556.537476,232.168121 554.807556,232.447769 553.502319,231.139450 
	C552.945618,228.866928 554.626648,227.673492 555.634521,226.267578 
	C565.724121,212.193115 575.845642,198.141403 585.993591,184.108887 
	C590.429138,177.975464 590.379639,178.063217 585.909302,171.702698 
	C576.334656,158.079849 566.852661,144.391830 557.352234,130.716965 
	C556.419922,129.375046 555.211487,128.119293 555.374146,126.317291 
	C555.913879,125.234436 556.865173,124.961227 557.898132,124.955772 
	C567.057495,124.907433 576.217285,124.912239 585.376282,124.824219 
	C587.940613,124.799568 589.216675,126.313248 590.410645,128.259323 
	C594.676453,135.212128 598.975403,142.145660 603.358521,149.024857 
	C604.761414,151.226669 605.899841,153.690598 608.169983,155.254135 
	C610.242920,154.584045 610.652649,152.588791 611.953247,150.926849 
z"/>
<path fill="#000000" opacity="1.000000" stroke="none" 
	d="
M702.126038,174.000381 
	C702.137146,181.659760 702.037170,188.821716 702.195740,195.977936 
	C702.396912,205.051987 707.390076,208.862106 715.957581,205.975174 
	C720.751465,204.359833 721.831421,205.949020 722.026489,210.290985 
	C722.250122,215.267883 722.891602,220.228088 723.419067,225.188339 
	C723.651489,227.373734 723.369751,229.191864 720.970703,229.993301 
	C710.749634,233.407791 700.378479,235.535034 689.580444,233.290298 
	C680.211365,231.342621 674.280029,225.677017 671.810120,216.418182 
	C670.603882,211.896606 669.861877,207.265945 669.893494,202.615799 
	C670.139893,166.346848 670.525757,130.078857 670.790527,93.810005 
	C670.815979,90.329391 671.892883,88.564240 675.678101,88.661011 
	C682.819641,88.843590 689.922546,87.792908 697.123840,88.353271 
	C701.368652,88.683571 702.388794,90.143959 702.361694,94.080345 
	C702.179443,120.552979 702.184998,147.026901 702.126038,174.000381 
z"/>
<path fill="#000000" opacity="1.000000" stroke="none" 
	d="
M156.598755,153.553818 
	C165.676331,146.588028 173.096344,146.189178 182.208359,151.930374 
	C189.743683,156.678146 193.258682,165.362000 191.336517,174.481613 
	C189.371155,183.806122 182.473099,190.315308 172.958923,191.823151 
	C165.446259,193.013794 156.604538,188.446304 152.404083,181.204865 
	C147.954010,173.533081 148.317001,163.671173 153.339661,157.156952 
	C154.251816,155.973907 155.338135,154.925140 156.598755,153.553818 
z"/>
<path fill="#000000" opacity="1.000000" stroke="none" 
	d="
M307.798798,168.258148 
	C291.222595,171.022217 274.826202,172.889725 258.778473,176.366669 
	C245.312820,179.284149 232.457230,178.079788 219.396774,175.018768 
	C214.067978,173.769867 208.600845,173.110550 203.195816,172.187881 
	C201.436951,171.887634 199.516449,171.967499 198.237061,169.906845 
	C199.214142,167.523254 201.638641,167.583847 203.569122,167.154266 
	C210.549545,165.600967 217.806427,164.933487 224.533829,162.668808 
	C242.286102,156.692764 259.769806,161.623184 277.356842,163.014801 
	C285.644623,163.670609 293.950836,164.170944 302.204956,165.121277 
	C304.259918,165.357864 307.675598,164.107697 307.798798,168.258148 
z"/>
<path fill="#000000" opacity="1.000000" stroke="none" 
	d="
M115.374916,279.331879 
	C111.565102,284.897369 107.948875,290.159943 104.025558,295.869446 
	C102.047661,292.969879 103.432838,291.225983 104.108505,289.534302 
	C111.576660,270.836273 118.980324,252.112823 125.619629,233.101471 
	C126.930115,229.348953 129.352158,226.488022 131.826080,223.562759 
	C138.919754,215.174850 146.021545,206.792862 152.471466,197.884247 
	C153.401779,196.599289 154.090881,194.898315 156.176620,194.754166 
	C158.053253,196.074738 156.932968,197.677917 156.481689,199.146423 
	C153.549683,208.687057 150.041611,218.088593 147.747070,227.778351 
	C144.291473,242.371246 133.760849,252.508972 126.001755,264.391571 
	C122.728569,269.404297 119.058296,274.157715 115.374916,279.331879 
z"/>
<path fill="#000000" opacity="1.000000" stroke="none" 
	d="
M125.829048,110.971725 
	C116.866524,89.390831 108.080246,68.134666 99.047394,46.281990 
	C102.288223,46.623810 103.096420,48.597179 104.160957,50.099842 
	C115.510483,66.120384 127.333252,81.782135 139.612518,97.100540 
	C141.290222,99.193489 142.659256,101.475677 143.541733,104.010452 
	C148.023361,116.883247 152.475601,129.766281 156.945038,142.643326 
	C157.278976,143.605438 157.606934,144.543808 155.865067,146.222595 
	C145.890762,134.555923 135.948029,122.926201 125.829048,110.971725 
z"/>
<path fill="#000000" opacity="1.000000" stroke="none" 
	d="
M59.389977,166.264862 
	C71.156380,164.336655 82.619438,163.300293 93.851753,160.803833 
	C96.347107,160.249237 98.853706,160.393326 101.297356,160.907547 
	C113.681908,163.513687 126.134987,165.706924 138.666367,167.479004 
	C140.227631,167.699799 142.069946,167.653595 143.087265,169.418274 
	C142.955353,171.785645 140.898911,171.675583 139.450241,171.981659 
	C126.586250,174.699753 113.685623,177.245270 100.828239,179.993469 
	C94.985741,181.242249 89.697960,178.506119 84.082565,178.043335 
	C68.506134,176.759628 53.098137,173.801285 37.449566,173.089005 
	C35.700294,173.009384 33.829372,172.954605 32.227058,170.387726 
	C41.352631,168.055298 50.308685,168.066238 59.389977,166.264862 
z"/>
<path fill="#000000" opacity="1.000000" stroke="none" 
	d="
M211.871338,80.880676 
	C220.262360,68.875015 228.446472,57.160240 236.904663,45.053150 
	C238.697510,47.699646 237.554947,48.999542 237.049622,50.308117 
	C229.558823,69.706268 222.010956,89.082405 214.546143,108.490509 
	C213.809570,110.405502 212.749878,112.039650 211.488556,113.589333 
	C203.506805,123.395966 195.529953,133.206680 187.508926,142.981110 
	C186.619415,144.065048 185.904633,145.577774 184.135757,145.433899 
	C182.829086,144.385361 183.522751,143.235397 183.857071,142.191147 
	C188.066559,129.042892 192.087082,115.828011 196.625610,102.793701 
	C199.063400,95.792534 204.890823,90.806633 208.901321,84.713715 
	C209.721970,83.466927 210.738281,82.348923 211.871338,80.880676 
z"/>
<path fill="#000000" opacity="1.000000" stroke="none" 
	d="
M175.506149,217.627350 
	C177.395676,226.486710 179.561127,234.883057 180.844803,243.412125 
	C181.786194,249.667023 179.886063,255.944092 179.258408,262.210968 
	C177.684006,277.930573 176.063187,293.645508 174.448227,309.360992 
	C174.320633,310.602539 174.605652,312.015533 172.886765,313.266174 
	C170.427170,308.379150 170.691757,303.172546 169.892365,298.297821 
	C167.174500,281.724060 164.682846,265.108002 162.461212,248.460556 
	C161.574570,241.816605 163.927765,235.320572 164.783463,228.759583 
	C165.943939,219.861511 167.522400,211.017731 168.943222,202.154129 
	C169.099915,201.176682 169.300568,200.167740 171.314148,199.111099 
	C172.712463,205.302917 174.058243,211.262070 175.506149,217.627350 
z"/>
<path fill="#000000" opacity="1.000000" stroke="none" 
	d="
M59.831146,236.808594 
	C73.580681,225.230560 87.379784,214.250290 100.235443,202.175308 
	C102.599792,199.954559 105.293854,198.454895 108.282005,197.328079 
	C119.013115,193.281509 129.720016,189.170456 140.464005,185.158585 
	C142.241486,184.494858 144.030960,183.188599 146.076675,184.336960 
	C146.839447,186.061951 145.550583,186.874756 144.637436,187.734253 
	C135.315353,196.508713 125.980888,205.270264 116.597237,213.978699 
	C115.395691,215.093796 114.003769,216.134369 112.515251,216.789810 
	C93.640999,225.100769 75.215073,234.351898 56.649052,243.309174 
	C55.498024,243.864502 54.332817,244.622742 52.624527,243.877533 
	C53.867054,240.313965 57.419476,239.356873 59.831146,236.808594 
z"/>
<path fill="#000000" opacity="1.000000" stroke="none" 
	d="
M224.249603,248.794617 
	C230.665390,263.474152 236.945648,277.799042 243.381119,292.478027 
	C240.103775,292.752258 239.515884,290.909912 238.570023,289.670074 
	C226.550583,273.914856 214.933441,257.847412 202.110001,242.717422 
	C198.995331,239.042526 197.846893,234.453171 196.214111,230.118866 
	C192.284363,219.687210 189.201492,208.938614 184.466339,198.806976 
	C183.971649,197.748474 183.484177,196.658752 185.140427,194.342331 
	C199.823227,211.476578 217.629456,225.700607 224.249603,248.794617 
z"/>
<path fill="#000000" opacity="1.000000" stroke="none" 
	d="
M258.097992,109.050247 
	C267.961975,104.482742 277.494080,100.090553 287.202118,95.617287 
	C287.965759,98.628761 286.292175,99.192482 285.209045,100.077164 
	C269.882172,112.595894 254.090668,124.567574 239.936188,138.465607 
	C237.818161,140.545258 235.094986,141.343048 232.479156,142.356827 
	C221.315048,146.683517 210.124725,150.942581 198.940613,155.217529 
	C197.579910,155.737625 196.220825,156.550385 194.692657,155.573822 
	C194.260040,152.959457 196.441345,152.117584 197.806046,150.866348 
	C203.446396,145.694901 209.663330,141.058807 214.754379,135.403198 
	C222.879257,126.377335 232.536163,120.099632 243.788925,115.842964 
	C248.594711,114.025047 253.115707,111.454254 258.097992,109.050247 
z"/>
<path fill="#000000" opacity="1.000000" stroke="none" 
	d="
M175.424545,116.354721 
	C173.960419,124.877823 173.422440,133.142792 171.004532,141.214661 
	C168.105225,140.097717 168.370651,137.784637 168.002335,136.000778 
	C165.414062,123.464813 162.934189,110.906227 160.468552,98.345268 
	C159.313171,92.459236 161.619385,86.851105 162.043427,81.080544 
	C163.175613,65.673378 166.039795,50.440399 166.899979,34.994404 
	C167.023682,32.773224 166.851028,30.350464 168.757828,28.498207 
	C171.046417,29.366011 170.809830,31.397640 171.033997,33.090931 
	C173.715332,53.344883 176.535858,73.583199 178.909561,93.873627 
	C179.789246,101.393135 176.123352,108.483154 175.424545,116.354721 
z"/>
<path fill="#000000" opacity="1.000000" stroke="none" 
	d="
M264.199402,229.883423 
	C253.257462,224.881165 242.415817,220.647308 231.464050,216.691483 
	C229.397125,215.944870 227.518250,214.974289 225.940002,213.415100 
	C217.051895,204.634384 207.370010,196.744064 197.997452,188.506104 
	C196.694443,187.360825 194.776993,186.582611 194.831314,184.245819 
	C196.532608,182.580780 198.274948,183.737381 199.809708,184.407990 
	C210.661041,189.149460 222.041290,192.357376 233.245651,196.073608 
	C235.787949,196.916840 238.138962,197.970505 240.242691,199.752090 
	C254.978592,212.231461 270.539703,223.651260 285.983734,235.221954 
	C287.599670,236.432617 289.990448,237.080383 290.277100,241.043915 
	C281.296692,237.201752 272.922607,233.618988 264.199402,229.883423 
z"/>
<path fill="#000000" opacity="1.000000" stroke="none" 
	d="
M128.439163,138.560486 
	C134.695450,144.171295 141.244400,148.950699 146.829575,154.943970 
	C144.697739,156.987595 142.966812,155.769592 141.385834,155.224838 
	C129.750275,151.215622 118.133308,147.151215 106.544205,143.009842 
	C105.011513,142.462143 103.515297,141.565735 102.262337,140.519318 
	C86.674904,127.501526 70.649940,115.039322 54.517429,102.710991 
	C53.651863,102.049522 52.450737,101.483215 52.692364,99.960831 
	C54.157616,98.562622 55.476761,99.732422 56.734852,100.291496 
	C74.827164,108.331253 92.889267,116.424751 111.309639,123.719162 
	C118.428841,126.538345 122.390503,133.624176 128.439163,138.560486 
z"/>
<path fill="#000000" opacity="1.000000" stroke="none" 
	d="
M246.178070,153.431274 
	C233.146545,155.815872 220.524185,158.148987 206.746872,160.695572 
	C214.533188,150.879547 261.050079,136.287231 271.486969,139.450760 
	C269.991516,142.346237 252.916580,151.898026 246.178070,153.431274 
z"/>
<path fill="#000000" opacity="1.000000" stroke="none" 
	d="
M73.861938,195.725296 
	C90.861069,183.890854 110.886795,183.836716 129.687653,179.549805 
	C130.789398,179.298584 131.975418,178.872162 133.426102,180.619507 
	C127.345413,185.317642 119.900879,187.022675 113.160881,189.949631 
	C106.061409,193.032669 99.521072,197.673080 91.432732,198.315643 
	C83.951874,198.909943 76.489723,199.739716 68.587387,200.507767 
	C69.302124,197.028244 71.850914,196.967987 73.861938,195.725296 
z"/>
<path fill="#000000" opacity="1.000000" stroke="none" 
	d="
M201.595551,134.597885 
	C208.036972,125.895287 214.054901,117.310310 220.542908,109.096642 
	C226.779739,101.200920 235.932648,96.922600 244.032928,89.834953 
	C244.015625,100.757675 212.332214,135.191391 197.590546,141.606216 
	C197.397934,138.384338 199.953812,136.927689 201.595551,134.597885 
z"/>
<path fill="#000000" opacity="1.000000" stroke="none" 
	d="
M209.621674,181.843781 
	C208.644455,181.246597 207.576889,180.941742 208.004868,179.898300 
	C208.506607,178.674957 209.656708,179.151871 210.604843,179.278473 
	C216.873535,180.115524 223.118500,181.252228 229.413940,181.742111 
	C243.264404,182.819885 256.152710,186.750092 268.080444,193.848022 
	C269.441406,194.657898 271.294556,194.950256 271.639191,196.929199 
	C271.013519,198.368042 269.726227,198.206924 268.624573,198.136215 
	C255.490448,197.293213 242.486816,196.193192 230.369003,190.060760 
	C223.864685,186.769119 216.768723,184.646530 209.621674,181.843781 
z"/>
<path fill="#000000" opacity="1.000000" stroke="none" 
	d="
M199.230072,259.796265 
	C199.588654,264.941254 200.777588,269.616699 199.919525,274.672974 
	C191.478271,268.620087 178.828094,223.505295 181.455139,210.122269 
	C183.503265,210.203445 183.550323,212.045670 184.061264,213.289261 
	C188.606689,224.352631 193.206009,235.397552 197.487488,246.563690 
	C199.031021,250.589264 199.076111,255.016968 199.230072,259.796265 
z"/>
<path fill="#000000" opacity="1.000000" stroke="none" 
	d="
M76.675171,147.414154 
	C73.889221,145.533707 70.318001,145.447296 68.131325,141.174911 
	C77.738319,141.911285 86.934105,141.130875 95.162804,143.588501 
	C108.107620,147.454636 120.401360,153.500748 132.631927,159.657364 
	C113.753052,156.841827 94.082458,158.185226 76.675171,147.414154 
z"/>
<path fill="#000000" opacity="1.000000" stroke="none" 
	d="
M145.472595,275.065918 
	C143.145737,274.383545 143.884460,272.656342 143.928284,271.300171 
	C143.986938,269.484955 144.679230,267.656860 144.550171,265.874054 
	C143.104782,245.906418 153.649628,229.120056 159.045074,210.975098 
	C159.294418,210.136536 159.615662,208.992493 161.488251,208.961746 
	C162.116776,214.687271 160.262375,220.209106 159.807449,225.805511 
	C159.203049,233.240952 157.989151,240.624847 157.235184,248.051025 
	C156.888290,251.467682 155.429993,254.440659 154.086517,257.447357 
	C151.451294,263.344940 148.580475,269.137268 145.472595,275.065918 
z"/>
<path fill="#000000" opacity="1.000000" stroke="none" 
	d="
M134.159027,135.840622 
	C127.094772,130.259048 120.137428,125.099907 113.540146,119.515404 
	C105.223892,112.475830 100.977196,102.386093 93.250275,93.556496 
	C104.738113,94.105530 135.956039,125.392052 142.628479,141.784378 
	C138.840103,140.871323 136.922211,138.022446 134.159027,135.840622 
z"/>
<path fill="#000000" opacity="1.000000" stroke="none" 
	d="
M246.271500,243.704605 
	C247.547485,247.036392 245.673264,247.099701 244.117538,245.816528 
	C235.862457,239.007645 225.285141,235.273773 219.033188,225.723389 
	C213.767776,217.680038 207.786697,210.067719 200.944397,203.209412 
	C199.853195,202.115662 198.295959,201.060669 199.028259,198.105240 
	C216.893402,211.383408 235.525772,223.100998 246.271500,243.704605 
z"/>
<path fill="#000000" opacity="1.000000" stroke="none" 
	d="
M119.348328,217.327576 
	C127.224106,210.774277 134.821640,204.445206 142.419189,198.116135 
	C142.826675,198.545715 143.234161,198.975296 143.641647,199.404877 
	C129.923782,216.908310 119.683311,237.630524 97.162704,247.103638 
	C103.432999,236.514603 108.349968,224.962433 119.348328,217.327576 
z"/>
<path fill="#000000" opacity="1.000000" stroke="none" 
	d="
M193.585526,98.455338 
	C188.569122,109.092247 185.795334,120.216011 181.136490,131.330521 
	C176.446503,122.146606 188.546661,72.357674 196.572891,64.867203 
	C198.365662,68.043030 196.304230,92.244423 193.585526,98.455338 
z"/>
<path fill="#000000" opacity="1.000000" stroke="none" 
	d="
M142.001007,75.815872 
	C141.681656,72.152756 141.428146,68.934731 141.144638,65.335938 
	C145.488510,67.858948 154.520630,87.372635 155.852112,96.276436 
	C157.547165,107.611481 159.167831,118.957657 159.745438,130.564377 
	C153.533554,112.508980 141.638565,96.420837 142.001007,75.815872 
z"/>
</svg>